HIERARCHY
ROOT Joint1
{
	OFFSET 0.000000 0.000000 0.000000
	CHANNELS 6 Xposition Yposition Zposition Xrotation Yrotation Zrotation
	JOINT Joint2
	{
		OFFSET -0.000000 0.000000 1.456275
		CHANNELS 6 Xposition Yposition Zposition Xrotation Yrotation Zrotation
		JOINT Joint3
		{
			OFFSET -0.000000 0.000002 1.471446
			CHANNELS 6 Xposition Yposition Zposition Xrotation Yrotation Zrotation
			JOINT Joint4
			{
				OFFSET 0.625745 0.000000 0.917755
				CHANNELS 6 Xposition Yposition Zposition Xrotation Yrotation Zrotation
				JOINT Joint5
				{
					OFFSET -0.629534 0.000001 0.940221
					CHANNELS 6 Xposition Yposition Zposition Xrotation Yrotation Zrotation
					JOINT Joint6
					{
						OFFSET -0.000001 0.113772 1.960660
						CHANNELS 6 Xposition Yposition Zposition Xrotation Yrotation Zrotation
						JOINT Joint7
						{
							OFFSET -0.669733 -0.113771 0.388340
							CHANNELS 6 Xposition Yposition Zposition Xrotation Yrotation Zrotation
							End Site
							{
								OFFSET 0.005509 0.005509 0.438980
							}
						}
					}
				}
			}
		}
	}
}
MOTION
Frames: 22
Frame Time: 0.041667
0.000000 0.000000 0.000000 -0.000000 1.019410 0.010716 -0.000000 0.000000 1.456275 -0.000000 -44.995394 0.000000 -0.000000 0.000002 1.471446 0.000000 -1.133463 -0.059243 0.625744 0.000000 0.917754 0.000004 134.987556 -0.000001 -0.629534 0.000001 0.940221 -0.000000 1.709737 -0.051757 -0.000002 0.113772 1.960660 -88.460300 89.998862 -0.107776 -0.669733 -0.113771 0.388340 -0.705027 3.566198 134.956014 
0.000000 0.000000 0.000000 -0.000000 1.019410 0.069986 -0.000000 0.000000 1.456275 -0.000000 -45.031922 -0.000000 -0.000000 0.000002 1.471446 0.000000 -1.133458 -0.147070 0.625745 0.000000 0.917755 0.000004 134.893490 -0.000001 -0.629534 0.000001 0.940221 0.000000 1.709736 -0.165653 -0.000002 0.113772 1.960660 -88.301109 90.070934 0.001638 -0.669733 -0.113771 0.388340 -0.704168 3.566197 134.907656 
0.000000 0.000000 0.000000 -0.000000 1.019410 0.167146 -0.000000 0.000000 1.456275 0.000000 -45.091813 -0.000000 -0.000000 0.000002 1.471446 0.000000 -1.133461 -0.291043 0.625745 0.000000 0.917755 0.000004 134.739292 -0.000001 -0.629534 0.000001 0.940221 -0.000000 1.709737 -0.352360 -0.000000 0.113772 1.960661 -88.302892 90.189076 0.000663 -0.669733 -0.113771 0.388340 -0.702759 3.566193 134.828358 
0.000000 0.000000 0.000000 -0.000000 1.019410 0.300868 -0.000000 0.000000 1.456275 0.000000 -45.174236 0.000000 -0.000000 0.000002 1.471446 0.000000 -1.133456 -0.489192 0.625745 0.000000 0.917755 0.000004 134.527051 -0.000001 -0.629534 0.000001 0.940221 0.000000 1.709736 -0.609325 -0.000001 0.113772 1.960660 -88.303363 90.351675 0.000345 -0.669733 -0.113771 0.388340 -0.700821 3.566185 134.719211 
0.000000 0.000000 0.000000 -0.000000 1.019410 0.469823 -0.000000 -0.000000 1.456275 -0.000000 -45.278372 -0.000000 -0.000000 0.000002 1.471446 -0.000000 -1.133462 -0.739551 0.625745 0.000000 0.917755 0.000004 134.258911 -0.000001 -0.629533 0.000001 0.940221 0.000000 1.709737 -0.933995 -0.000001 0.113772 1.960660 -88.303547 90.557127 0.000228 -0.669733 -0.113771 0.388340 -0.698372 3.566170 134.581337 
0.000000 0.000000 0.000000 -0.000000 1.019410 0.672682 -0.000000 -0.000000 1.456275 0.000000 -45.403402 0.000000 -0.000001 0.000002 1.471446 0.000000 -1.133463 -1.040149 0.625745 0.000000 0.917755 0.000004 133.936991 -0.000001 -0.629534 0.000001 0.940221 0.000000 1.709736 -1.323817 -0.000001 0.113772 1.960660 -88.303650 90.803800 0.000153 -0.669733 -0.113771 0.388340 -0.695432 3.566145 134.415801 
0.000000 0.000000 0.000000 -0.000000 1.019410 0.908117 -0.000000 0.000000 1.456275 0.000000 -45.548517 -0.000000 -0.000000 0.000002 1.471445 -0.000000 -1.133458 -1.389019 0.625745 0.000000 0.917755 0.000004 133.563338 -0.000001 -0.629533 0.000001 0.940221 0.000000 1.709736 -1.776239 -0.000001 0.113772 1.960660 -88.303711 91.090073 0.000113 -0.669733 -0.113771 0.388339 -0.692019 3.566105 134.223640 
0.000000 0.000000 0.000000 -0.000000 1.019410 1.174800 -0.000000 0.000000 1.456275 0.000000 -45.712895 0.000000 -0.000000 0.000002 1.471446 0.000000 -1.133460 -1.784192 0.625744 0.000000 0.917755 0.000004 133.140085 -0.000001 -0.629534 0.000001 0.940221 0.000000 1.709736 -2.288708 -0.000001 0.113772 1.960661 -88.303759 91.414357 0.000087 -0.669733 -0.113771 0.388340 -0.688153 3.566045 134.005989 
0.000000 0.000000 0.000000 -0.000000 1.019410 1.471402 -0.000000 0.000000 1.456275 -0.000000 -45.895705 0.000000 -0.000001 0.000002 1.471446 0.000000 -1.133460 -2.223700 0.625745 0.000000 0.917755 0.000004 132.669362 -0.000001 -0.629533 0.000001 0.940221 0.000000 1.709736 -2.858671 -0.000001 0.113772 1.960661 -88.303780 91.775018 0.000077 -0.669733 -0.113771 0.388340 -0.683855 3.565962 133.763941 
0.000000 0.000000 0.000000 -0.000000 1.019410 1.796595 -0.000000 -0.000000 1.456275 -0.000000 -46.096137 0.000000 -0.000001 0.000002 1.471446 0.000000 -1.133455 -2.705574 0.625745 0.000000 0.917755 0.000004 132.153287 -0.000001 -0.629534 0.000001 0.940221 0.000000 1.709737 -3.483575 -0.000000 0.113772 1.960660 -88.303786 92.170445 0.000062 -0.669733 -0.113771 0.388340 -0.679143 3.565850 133.498561 
0.000000 0.000000 0.000000 -0.000000 1.019410 2.149050 -0.000000 -0.000000 1.456275 -0.000000 -46.313378 0.000000 -0.000000 0.000002 1.471446 -0.000000 -1.133458 -3.227844 0.625744 0.000000 0.917755 0.000004 131.593908 -0.000001 -0.629534 0.000001 0.940221 0.000000 1.709737 -4.160867 -0.000001 0.113772 1.960660 -88.303814 92.599019 0.000051 -0.669733 -0.113771 0.388340 -0.674035 3.565703 133.210914 
0.000000 0.000000 0.000000 -0.000000 1.019410 2.527709 -0.000000 0.000000 1.456275 -0.000000 -46.546766 0.000000 -0.000000 0.000002 1.471446 -0.000000 -1.133457 -3.788944 0.625745 0.000000 0.917755 0.000004 130.992961 -0.000001 -0.629534 0.000001 0.940221 0.000000 1.709736 -4.888514 -0.000000 0.113772 1.960660 -88.303821 93.059456 0.000035 -0.669733 -0.113771 0.388341 -0.668549 3.565517 132.901876 
0.000000 0.000000 0.000000 -0.000000 1.019410 2.932590 -0.000000 0.000000 1.456275 -0.000000 -46.796317 -0.000000 -0.000000 0.000002 1.471446 0.000000 -1.133457 -4.388900 0.625745 0.000000 0.917755 0.000003 130.350390 -0.000001 -0.629534 0.000001 0.940221 0.000000 1.709737 -5.666549 -0.000001 0.113772 1.960661 -88.303827 93.551776 0.000027 -0.669733 -0.113771 0.388341 -0.662684 3.565286 132.571445 
0.000000 0.000000 0.000000 -0.000000 1.019410 3.363980 -0.000000 0.000000 1.456275 -0.000000 -47.062213 0.000000 -0.000000 0.000002 1.471446 -0.000000 -1.133459 -5.028136 0.625744 0.000000 0.917755 0.000004 129.665787 -0.000001 -0.629534 0.000001 0.940221 0.000000 1.709736 -6.495525 -0.000001 0.113772 1.960660 -88.303848 94.076341 0.000022 -0.669733 -0.113771 0.388340 -0.656438 3.565003 132.219417 
0.000000 0.000000 0.000000 -0.000000 1.019410 3.822166 -0.000000 0.000000 1.456275 0.000000 -47.344614 -0.000000 -0.000000 0.000002 1.471446 -0.000000 -1.133458 -5.707082 0.625744 0.000000 0.917755 0.000004 128.938604 -0.000001 -0.629534 0.000001 0.940221 0.000000 1.709737 -7.375995 -0.000001 0.113772 1.960661 -88.303834 94.633480 0.000020 -0.669733 -0.113771 0.388340 -0.649806 3.564656 131.845491 
0.000000 0.000000 0.000000 -0.000000 1.019410 4.307436 -0.000000 0.000000 1.456275 -0.000001 -47.643718 -0.000001 -0.000000 0.000002 1.471446 -0.000000 -1.133463 -6.426161 0.625744 0.000000 0.917755 0.000003 128.168459 -0.000001 -0.629534 0.000001 0.940221 -0.000000 1.709737 -8.308511 -0.000002 0.113772 1.960661 -88.303848 95.223554 0.000027 -0.669733 -0.113771 0.388340 -0.642784 3.564249 131.449463 
0.000000 0.000000 0.000000 -0.000000 1.019410 4.819154 -0.000000 -0.000000 1.456275 -0.000000 -47.959116 0.000000 -0.000000 0.000002 1.471446 -0.000000 -1.133461 -7.184426 0.625744 0.000000 0.917755 0.000004 127.356349 -0.000001 -0.629534 0.000001 0.940221 0.000000 1.709737 -9.291848 -0.000001 0.113772 1.960660 -88.303855 95.845791 0.000009 -0.669733 -0.113771 0.388340 -0.635381 3.563763 131.031852 
0.000000 0.000000 0.000000 -0.000000 1.019410 5.352972 -0.000000 0.000000 1.456275 0.000000 -48.288147 0.000000 -0.000000 0.000002 1.471446 -0.000001 -1.133460 -7.975442 0.625745 0.000000 0.917755 0.000004 126.509146 -0.000002 -0.629534 0.000001 0.940220 0.000000 1.709736 -10.317656 -0.000001 0.113772 1.960660 -88.303855 96.494898 0.000036 -0.669733 -0.113771 0.388340 -0.627665 3.563200 130.596222 
0.000000 0.000000 0.000000 -0.000000 1.019410 5.903618 -0.000000 0.000000 1.456275 -0.000000 -48.627545 -0.000001 -0.000001 0.000002 1.471446 0.000001 -1.133464 -8.791397 0.625745 0.000000 0.917755 0.000004 125.635251 -0.000001 -0.629534 0.000001 0.940221 0.000000 1.709736 -11.375801 -0.000001 0.113772 1.960661 -88.303855 97.164468 0.000010 -0.669733 -0.113771 0.388341 -0.619709 3.562557 130.146837 
0.000000 0.000000 0.000000 -0.000000 1.019410 6.465824 -0.000000 0.000000 1.456275 0.000000 -48.974065 -0.000000 -0.000000 0.000002 1.471446 -0.000000 -1.133460 -9.624475 0.625744 0.000000 0.917755 0.000004 124.743010 -0.000002 -0.629534 0.000001 0.940221 0.000000 1.709735 -12.456156 -0.000000 0.113772 1.960660 -88.303868 97.848095 0.000006 -0.669733 -0.113771 0.388341 -0.611589 3.561837 129.688012 
0.000000 0.000000 0.000000 -0.000000 1.019410 7.051172 -0.000000 0.000000 1.456275 -0.000001 -49.334846 0.000000 -0.000000 0.000002 1.471446 0.000001 -1.133459 -10.491849 0.625745 0.000000 0.917755 0.000004 123.814063 -0.000002 -0.629534 0.000001 0.940221 -0.000000 1.709739 -13.580986 -0.000001 0.113772 1.960661 -88.303848 98.559869 0.000021 -0.669733 -0.113771 0.388340 -0.603145 3.561019 129.210309 
0.000000 0.000000 0.000000 -0.000000 1.019410 7.738678 -0.000000 0.000000 1.456275 0.000000 -49.758591 0.000000 -0.000000 0.000002 1.471446 0.000001 -1.133461 -11.510598 0.625745 0.000000 0.917755 0.000004 122.722940 -0.000001 -0.629534 0.000001 0.940221 -0.000000 1.709737 -14.902126 -0.000001 0.113772 1.960660 -88.303862 99.395857 0.000021 -0.669733 -0.113771 0.388340 -0.593236 3.559964 128.649236 
